<svg xmlns="http://www.w3.org/2000/svg" width="524.105" height="52.625" viewBox="0 0 524.105 52.625">
  <g id="Group_8378" data-name="Group 8378" transform="translate(-114.881 -1006.365)">
    <path id="Path_30" data-name="Path 30" d="M114.881,1017.5v-10.864H153.81V1017.5H140.564v40.414H128.137V1017.5Z" transform="translate(0 0.408)" fill="#fff"/>
    <path id="Path_31" data-name="Path 31" d="M161.892,1006.634h12.651v51.278H161.892v-19.948H146.264v19.948H133.837v-51.278h12.427v20.24h15.627Z" transform="translate(28.77 0.408)" fill="#fff"/>
    <path id="Path_32" data-name="Path 32" d="M154.207,1057.912v-51.278h33.271V1017.5H166.634v9.829h18.311v10.637H166.634v9.084h21.511v10.864Z" transform="translate(59.685 0.408)" fill="#fff"/>
    <path id="Path_33" data-name="Path 33" d="M209.351,1046.155H193.2l-4.32,11.757H175.563l18.9-51.278h13.548l18.83,51.278H213.671Zm-12.792-10.723h9.592l-4.98-16.889Z" transform="translate(92.097 0.408)" fill="#fff"/>
    <path id="Path_34" data-name="Path 34" d="M198.3,1057.912v-51.278h21.209c12.06,0,17.566,8.558,17.566,17.115,0,7.3-3.943,14.366-12.284,16.446l12.51,17.717H222.863L211.848,1040.8h-1.12v17.115Zm12.425-40.414v12.576h8.19c4.1,0,5.584-3.276,5.584-6.324s-1.488-6.252-5.584-6.252Z" transform="translate(126.61 0.408)" fill="#fff"/>
    <path id="Path_35" data-name="Path 35" d="M261.649,1006.634h10.5l6.249,51.278h-12.8l-3.124-27.612-15.23,27.994L232.325,1030.3l-3.2,27.612h-12.8l6.327-51.278h10.345l14.442,29.145Z" transform="translate(153.954 0.408)" fill="#fff"/>
    <path id="Path_36" data-name="Path 36" d="M269.177,1006.365a26.313,26.313,0,1,1-26.134,26.35A26.184,26.184,0,0,1,269.177,1006.365Zm0,40.122a13.808,13.808,0,1,0-13.548-13.772A13.671,13.671,0,0,0,269.177,1046.487Z" transform="translate(194.512)" fill="#fff"/>
    <path id="Path_37" data-name="Path 37" d="M266.64,1039.236v-32.6h12.5v32.6a7.739,7.739,0,0,0,15.476,0v-32.6h12.51v32.6c0,11.833-9.6,19.346-20.25,19.346S266.64,1051.069,266.64,1039.236Z" transform="translate(230.325 0.408)" fill="#fff"/>
    <path id="Path_38" data-name="Path 38" d="M286.685,1057.912v-51.278h21.209c12.06,0,17.626,8.558,17.569,17.115-.043,5.949-1.735,13.027-9.555,16.446l15.245,17.717H316.711L302.964,1040.8h-3.852v17.115Zm12.427-40.414v12.576h8.19c4.094,0,5.582-3.276,5.582-6.324s-1.488-6.252-5.582-6.252Z" transform="translate(260.748 0.408)" fill="#fff"/>
    <path id="Path_39" data-name="Path 39" d="M322.2,1057.912v-23.075l-20.023-28.2h14.807l11.393,18.6,11.607-18.6h14.744l-20.023,28.43v22.848Z" transform="translate(284.26 0.408)" fill="#fff"/>
  </g>
</svg>
