<svg xmlns="http://www.w3.org/2000/svg" width="225.389" height="35.706" viewBox="0 0 225.389 35.706">
  <g id="Group_8379" data-name="Group 8379" transform="translate(-334.949 -1006.609)">
    <path id="Path_40" data-name="Path 40" d="M344.064,1039.3v-29.672s-5.232,1.066-5.232-3.014h-3.884v35.706h3.884C338.833,1038.366,344.064,1039.3,344.064,1039.3Z" transform="translate(0 0)" fill="#fff"/>
    <path id="Path_41" data-name="Path 41" d="M454.969,1023.8l17.953-4.874-17.953-4.595Z" transform="translate(87.416 5.623)" fill="#fff"/>
    <path id="Path_42" data-name="Path 42" d="M464.239,1016.747s-22.711-6.188-24.048-6.792c2.376,2.809-.4,5.557-1.754,5.8,1.474,1.075,2.964,3.075,2.964,6.589,0,2.976-1.49,5.337-2.98,6.158a3.624,3.624,0,0,1,1.813,5.595c5.22-1.7,17.168-4.419,24.005-6.518Z" transform="translate(75.364 2.437)" fill="#fff"/>
    <path id="Path_43" data-name="Path 43" d="M452.961,1028.543c2.205-1.084,3.977-2.425,3.977-6.1,0-3.464-1.4-5.328-3.747-6.613,5.825-2.392,2.758-5.892,2.053-5.9l-42.151-.021v3.006h35.435v2.523H413.093v18.78h38.931l3.55-.014C455.864,1034.243,458.625,1030.852,452.961,1028.543Z" transform="translate(56.916 2.401)" fill="#fff"/>
    <path id="Path_44" data-name="Path 44" d="M444.43,1013h-96.44v-2.826h96.591l18.018,4.852v-2.717l-18.317-5.639-102.573-.061v35.705H444.282l18.317-5.7v-19.079Z" transform="translate(4.924 0)" fill="#fff"/>
  </g>
</svg>
